<?xml version="1.0" encoding="utf-8"?>
<!-- Generator: Adobe Illustrator 17.1.0, SVG Export Plug-In . SVG Version: 6.00 Build 0)  -->
<!DOCTYPE svg PUBLIC "-//W3C//DTD SVG 1.1//EN" "http://www.w3.org/Graphics/SVG/1.1/DTD/svg11.dtd">
<svg version="1.1" id="Слой_1" xmlns="http://www.w3.org/2000/svg" xmlns:xlink="http://www.w3.org/1999/xlink" x="0px" y="0px"
	 viewBox="0 0 200 200" enable-background="new 0 0 200 200" xml:space="preserve">
<g>
	<path fill="none" stroke="#000000" stroke-width="4" stroke-linejoin="round" stroke-miterlimit="10" d="M69.8,126.3L34.8,96
		c-2-1.7-3.1-4.2-3.1-6.9V75.5c0-1.6,0.7-3.1,1.9-4"/>
	
		<path fill="#FF4545" stroke="#000000" stroke-width="4" stroke-linecap="round" stroke-linejoin="round" stroke-miterlimit="10" d="
		M168.3,131.2H79.2c-6.3,0-11.5-5.1-11.5-11.5v-0.2c0-6.3,5.1-11.5,11.5-11.5h82.6l0,0.1c-2.6,7.4-2.6,15.5,0,23l0,0.1"/>
	<path fill="none" stroke="#000000" stroke-width="4" stroke-linejoin="round" stroke-miterlimit="10" d="M69.8,149.5l-35-30.3
		c-2-1.7-3.1-4.2-3.1-6.9V98.8c0-1.6,0.7-3.1,1.9-4"/>
	<path fill="#798FC9" stroke="#000000" stroke-width="4" stroke-linecap="round" stroke-miterlimit="10" d="M168.3,154.4H79.2
		c-6.3,0-11.5-5.1-11.5-11.5v-0.2c0-6.3,5.1-11.5,11.5-11.5h82.6l0,0.1c-2.6,7.4-2.6,15.5,0,23l0,0.1"/>
	<path fill="none" stroke="#000000" stroke-width="4" stroke-miterlimit="10" d="M75.2,107.8"/>
	<path fill="none" stroke="#000000" stroke-width="4" stroke-miterlimit="10" d="M75.2,84.9"/>
	<line fill="none" stroke="#000000" stroke-width="4" stroke-miterlimit="10" x1="75.7" y1="85.4" x2="33.3" y2="48.6"/>
	<path fill="none" stroke="#000000" stroke-width="4" stroke-linejoin="round" stroke-miterlimit="10" d="M69.8,103.2l-35-30.3
		c-2-1.7-3.1-4.2-3.1-6.9V52.4c0-2.9,2.3-5.2,5.2-5.2h87.8l43.6,37.7h-7.8"/>
	<path fill="#798FC9" stroke="#000000" stroke-width="4" stroke-linecap="round" stroke-miterlimit="10" d="M168.3,108.1H79.2
		c-6.3,0-11.5-5.1-11.5-11.5v-0.2c0-6.3,5.1-11.5,11.5-11.5h82.6l0,0.1c-2.6,7.4-2.6,15.5,0,23l0,0.1"/>
	<polygon fill="none" stroke="#000000" stroke-width="4" stroke-linejoin="round" stroke-miterlimit="10" points="111.6,55.2 
		123.7,65.7 75.6,65.7 63.5,55.2 	"/>
</g>
</svg>
