<?xml version="1.0" encoding="utf-8"?>
<!-- Generator: Adobe Illustrator 17.1.0, SVG Export Plug-In . SVG Version: 6.00 Build 0)  -->
<!DOCTYPE svg PUBLIC "-//W3C//DTD SVG 1.1//EN" "http://www.w3.org/Graphics/SVG/1.1/DTD/svg11.dtd">
<svg version="1.1" id="Слой_1" xmlns="http://www.w3.org/2000/svg" xmlns:xlink="http://www.w3.org/1999/xlink" x="0px" y="0px"
	 viewBox="0 0 346.7 200" enable-background="new 0 0 346.7 200" xml:space="preserve">
<g>
	<g>
		<line fill="none" stroke="#000000" stroke-width="3.313" stroke-miterlimit="10" x1="45.5" y1="132.2" x2="17.1" y2="107.6"/>
		
			<line fill="none" stroke="#000000" stroke-width="3.313" stroke-linejoin="round" stroke-miterlimit="10" x1="94.9" y1="120.9" x2="107.5" y2="131.9"/>
		<path fill="none" stroke="#000000" stroke-width="3.313" stroke-linejoin="round" stroke-miterlimit="10" d="M41.6,144.1
			l-23.5-20.3c-1.3-1.2-2.1-2.8-2.1-4.6v-9.1c0-1.9,1.6-3.5,3.5-3.5h8"/>
		<path fill="#798FC9" stroke="#000000" stroke-width="3.313" stroke-linecap="round" stroke-miterlimit="10" d="M107.5,147.4H47.9
			c-4.2,0-7.7-3.4-7.7-7.7v-0.2c0-4.2,3.4-7.7,7.7-7.7h55.3l0,0.1c-1.7,5-1.7,10.4,0,15.4l0,0.1"/>
	</g>
	<g>
		<path fill="#798FC9" stroke="#000000" stroke-width="3.313" stroke-linecap="round" stroke-miterlimit="10" d="M162,147.4h-59.7
			c-4.2,0-7.7-3.4-7.7-7.7v-0.2c0-4.2,3.4-7.7,7.7-7.7h55.3l0,0.1c-1.7,5-1.7,10.4,0,15.4l0,0.1"/>
	</g>
	<g>
		<path fill="#798FC9" stroke="#000000" stroke-width="3.313" stroke-linecap="round" stroke-miterlimit="10" d="M218.2,147.4h-59.7
			c-4.2,0-7.7-3.4-7.7-7.7v-0.2c0-4.2,3.4-7.7,7.7-7.7h55.3l0,0.1c-1.7,5-1.7,10.4,0,15.4l0,0.1"/>
	</g>
	<g>
		<path fill="#798FC9" stroke="#000000" stroke-width="3.313" stroke-linecap="round" stroke-miterlimit="10" d="M274.5,147.4h-59.7
			c-4.2,0-7.7-3.4-7.7-7.7v-0.2c0-4.2,3.4-7.7,7.7-7.7h55.3l0,0.1c-1.7,5-1.7,10.4,0,15.4l0,0.1"/>
	</g>
	<g>
		<polyline fill="none" stroke="#000000" stroke-width="3.313" stroke-linejoin="round" stroke-miterlimit="10" points="
			310.9,114.7 330.7,131.9 325.5,131.9 		"/>
		<path fill="#798FC9" stroke="#000000" stroke-width="3.313" stroke-linecap="round" stroke-miterlimit="10" d="M330.7,147.4H271
			c-4.2,0-7.7-3.4-7.7-7.7v-0.2c0-4.2,3.4-7.7,7.7-7.7h55.3l0,0.1c-1.7,5-1.7,10.4,0,15.4l0,0.1"/>
	</g>
	
		<polygon fill="#FF4545" stroke="#000000" stroke-width="3.313" stroke-linecap="round" stroke-linejoin="round" stroke-miterlimit="10" points="
		82.2,82.9 44.1,82.9 27.5,68.8 65.6,68.8 	"/>
	
		<rect x="44.1" y="82.9" fill="none" stroke="#000000" stroke-width="3.3133" stroke-linejoin="round" stroke-miterlimit="10" width="38" height="38"/>
	
		<polygon fill="#FF4545" stroke="#000000" stroke-width="3.313" stroke-linecap="round" stroke-linejoin="round" stroke-miterlimit="10" points="
		120.3,82.9 82.2,82.9 65.6,68.8 103.7,68.8 	"/>
	
		<rect x="82.2" y="82.9" fill="none" stroke="#000000" stroke-width="3.3133" stroke-linejoin="round" stroke-miterlimit="10" width="38" height="38"/>
	
		<polygon fill="#FF4545" stroke="#000000" stroke-width="3.313" stroke-linecap="round" stroke-linejoin="round" stroke-miterlimit="10" points="
		158.4,82.9 120.3,82.9 103.8,68.8 141.8,68.8 	"/>
	
		<rect x="120.3" y="82.9" fill="none" stroke="#000000" stroke-width="3.3133" stroke-linejoin="round" stroke-miterlimit="10" width="38" height="38"/>
	<polyline fill="none" stroke="#000000" stroke-width="3.3133" stroke-linejoin="round" stroke-miterlimit="10" points="27.5,68.8 
		27.5,106.8 44.1,120.9 82.2,120.9 	"/>
	<g>
		<path d="M70.3,109.1c0.2,0,0.4,0.1,0.6,0.3c0.2,0.2,0.3,0.4,0.3,0.6v2.2c0,0.2-0.1,0.4-0.3,0.6c-0.2,0.2-0.4,0.3-0.6,0.3H56.5
			c-0.2,0-0.4-0.1-0.6-0.3c-0.2-0.2-0.3-0.4-0.3-0.6V92c0-0.2,0.1-0.4,0.3-0.6c0.2-0.2,0.4-0.3,0.6-0.3H70c0.2,0,0.4,0.1,0.6,0.3
			c0.2,0.2,0.3,0.4,0.3,0.6v2.2c0,0.2-0.1,0.4-0.3,0.6C70.5,94.9,70.3,95,70,95H59.9v5h9.4c0.2,0,0.4,0.1,0.6,0.3
			c0.2,0.2,0.3,0.4,0.3,0.6v2.2c0,0.2-0.1,0.4-0.3,0.6c-0.2,0.2-0.4,0.3-0.6,0.3h-9.4v5.2H70.3z"/>
	</g>
	<g>
		<path d="M106.5,113c-0.4,0-0.6-0.1-0.8-0.3s-0.3-0.3-0.4-0.4l-8.8-13v12.9c0,0.2-0.1,0.4-0.3,0.6c-0.2,0.2-0.4,0.3-0.6,0.3h-2.5
			c-0.2,0-0.4-0.1-0.6-0.3c-0.2-0.2-0.3-0.4-0.3-0.6V92c0-0.2,0.1-0.4,0.3-0.6c0.2-0.2,0.4-0.3,0.6-0.3h2.2c0.4,0,0.6,0.1,0.8,0.3
			c0.2,0.2,0.3,0.3,0.4,0.4l8.8,13V92c0-0.2,0.1-0.4,0.3-0.6c0.2-0.2,0.4-0.3,0.6-0.3h2.5c0.2,0,0.4,0.1,0.6,0.3
			c0.2,0.2,0.3,0.4,0.3,0.6v20.2c0,0.2-0.1,0.4-0.3,0.6c-0.2,0.2-0.4,0.3-0.6,0.3H106.5z"/>
	</g>
	<g>
		<path d="M131.9,93.1c0.8-0.8,1.8-1.3,2.9-1.7c1.2-0.4,2.5-0.6,4.1-0.6c1.8,0,3.3,0.2,4.5,0.7c1.2,0.5,2.1,1,2.8,1.7
			c0.7,0.7,1.2,1.3,1.5,2c0.3,0.7,0.4,1.3,0.5,1.8c0,0.3-0.1,0.5-0.2,0.6c-0.2,0.2-0.4,0.2-0.6,0.2h-2.5c-0.2,0-0.4-0.1-0.5-0.2
			c-0.1-0.1-0.2-0.2-0.3-0.4c0-0.1-0.2-0.3-0.3-0.5c-0.2-0.3-0.5-0.6-0.8-0.9c-0.4-0.3-0.9-0.6-1.5-0.8c-0.6-0.2-1.4-0.4-2.3-0.4
			c-1.6,0-2.8,0.4-3.8,1.3c-0.9,0.8-1.4,2-1.5,3.4c0,0.8-0.1,1.6-0.1,2.6s0,1.8,0.1,2.6c0.1,1.7,0.6,3,1.5,3.8
			c0.9,0.8,2.2,1.2,3.8,1.2c0.8,0,1.5-0.1,2.1-0.3c0.6-0.2,1.2-0.4,1.7-0.8c0.5-0.4,0.8-0.9,1.1-1.5c0.3-0.6,0.4-1.4,0.4-2.3v-0.3
			h-3.8c-0.2,0-0.4-0.1-0.6-0.3c-0.2-0.2-0.3-0.4-0.3-0.6v-2.2c0-0.2,0.1-0.4,0.3-0.6c0.2-0.2,0.4-0.3,0.6-0.3h7.2
			c0.2,0,0.4,0.1,0.6,0.3c0.2,0.2,0.3,0.4,0.3,0.6v3.4c0,1.3-0.2,2.4-0.6,3.5c-0.4,1.1-1,2-1.8,2.7c-0.8,0.8-1.8,1.4-3,1.8
			c-1.2,0.4-2.6,0.6-4.2,0.6c-1.6,0-3-0.2-4.1-0.6c-1.2-0.4-2.1-1-2.9-1.8s-1.4-1.7-1.8-2.7c-0.4-1.1-0.7-2.2-0.7-6.2
			C129.3,97.9,130.2,94.8,131.9,93.1z"/>
	</g>
	
		<polygon fill="#FF4545" stroke="#000000" stroke-width="3.313" stroke-linecap="round" stroke-linejoin="round" stroke-miterlimit="10" points="
		196.4,82.9 158.3,82.9 141.8,68.8 179.8,68.8 	"/>
	
		<rect x="158.3" y="82.9" fill="none" stroke="#000000" stroke-width="3.3133" stroke-linejoin="round" stroke-miterlimit="10" width="38" height="38"/>
	
		<polygon fill="#FF4545" stroke="#000000" stroke-width="3.313" stroke-linecap="round" stroke-linejoin="round" stroke-miterlimit="10" points="
		234.5,82.9 196.5,82.9 179.9,68.8 217.9,68.8 	"/>
	
		<rect x="196.5" y="82.9" fill="none" stroke="#000000" stroke-width="3.3133" stroke-linejoin="round" stroke-miterlimit="10" width="38" height="38"/>
	
		<polygon fill="#FF4545" stroke="#000000" stroke-width="3.313" stroke-linecap="round" stroke-linejoin="round" stroke-miterlimit="10" points="
		272.6,82.9 234.6,82.9 218,68.8 256,68.8 	"/>
	
		<rect x="234.6" y="82.9" fill="none" stroke="#000000" stroke-width="3.3133" stroke-linejoin="round" stroke-miterlimit="10" width="38" height="38"/>
	
		<polygon fill="#FF4545" stroke="#000000" stroke-width="3.313" stroke-linecap="round" stroke-linejoin="round" stroke-miterlimit="10" points="
		310.9,82.9 272.8,82.9 256.2,68.8 294.3,68.8 	"/>
	
		<rect x="272.8" y="82.9" fill="none" stroke="#000000" stroke-width="3.3133" stroke-linejoin="round" stroke-miterlimit="10" width="38" height="38"/>
	<g>
		<path d="M184.5,109.1c0.2,0,0.4,0.1,0.6,0.3c0.2,0.2,0.3,0.4,0.3,0.6v2.2c0,0.2-0.1,0.4-0.3,0.6c-0.2,0.2-0.4,0.3-0.6,0.3h-13.7
			c-0.2,0-0.4-0.1-0.6-0.3c-0.2-0.2-0.3-0.4-0.3-0.6V92c0-0.2,0.1-0.4,0.3-0.6c0.2-0.2,0.4-0.3,0.6-0.3h2.5c0.2,0,0.4,0.1,0.6,0.3
			c0.2,0.2,0.3,0.4,0.3,0.6v17.2H184.5z"/>
	</g>
	<g>
		<path d="M253.2,90.8c1.4,0,2.6,0.2,3.7,0.6c1.1,0.4,2,0.8,2.7,1.4c0.7,0.6,1.2,1.2,1.6,1.9c0.4,0.7,0.6,1.3,0.6,1.9
			c0,0.3-0.1,0.5-0.2,0.6c-0.2,0.2-0.4,0.2-0.6,0.2h-2.2c-0.4,0-0.6-0.1-0.8-0.2c-0.2-0.1-0.3-0.3-0.5-0.5c-0.3-0.5-0.8-1-1.4-1.4
			c-0.6-0.4-1.6-0.6-2.8-0.6c-0.5,0-1.1,0.1-1.6,0.2c-0.5,0.1-0.9,0.3-1.3,0.5s-0.7,0.5-0.9,0.8c-0.2,0.3-0.3,0.7-0.3,1.1
			c0,0.5,0.1,0.9,0.3,1.2c0.2,0.3,0.5,0.6,1,0.8s1.1,0.4,1.9,0.6s1.7,0.4,2.9,0.7c1.3,0.3,2.3,0.6,3.2,1s1.6,0.8,2.2,1.3
			c0.6,0.5,1,1.1,1.3,1.8c0.3,0.7,0.4,1.4,0.4,2.3c0,0.9-0.2,1.8-0.6,2.6c-0.4,0.8-1,1.5-1.8,2.1c-0.8,0.6-1.7,1-2.9,1.4
			c-1.1,0.3-2.4,0.5-3.8,0.5c-1.2,0-2.3-0.1-3.4-0.4c-1.1-0.3-2-0.7-2.8-1.2s-1.5-1.2-2-1.9c-0.5-0.8-0.8-1.6-0.8-2.5
			c0-0.3,0.1-0.5,0.2-0.6c0.2-0.2,0.4-0.2,0.6-0.2h2.2c0.4,0,0.6,0.1,0.8,0.2c0.2,0.1,0.3,0.3,0.5,0.6c0.1,0.3,0.3,0.5,0.5,0.8
			c0.2,0.3,0.5,0.5,0.8,0.7c0.4,0.2,0.8,0.4,1.3,0.5c0.5,0.1,1.2,0.2,2,0.2c0.6,0,1.2,0,1.8-0.1c0.6-0.1,1.1-0.3,1.5-0.5
			s0.8-0.5,1.1-0.8c0.3-0.3,0.4-0.7,0.4-1.2c0-0.5-0.1-0.8-0.4-1.1c-0.3-0.3-0.7-0.5-1.3-0.8c-0.6-0.2-1.3-0.4-2.2-0.6
			c-0.9-0.2-1.9-0.4-3-0.7c-1-0.3-2-0.5-2.7-0.9c-0.8-0.3-1.4-0.8-1.9-1.3s-0.9-1.1-1.1-1.8c-0.3-0.7-0.4-1.5-0.4-2.4
			c0-0.9,0.2-1.8,0.6-2.6s1-1.5,1.7-2c0.7-0.6,1.6-1,2.6-1.3C251,91,252.1,90.8,253.2,90.8z"/>
	</g>
	<g>
		<path d="M300,91.1c0.2,0,0.4,0.1,0.6,0.3c0.2,0.2,0.3,0.4,0.3,0.6v20.2c0,0.2-0.1,0.4-0.3,0.6c-0.2,0.2-0.4,0.3-0.6,0.3h-2.5
			c-0.2,0-0.4-0.1-0.6-0.3c-0.2-0.2-0.3-0.4-0.3-0.6v-8.3h-9.5v8.3c0,0.2-0.1,0.4-0.3,0.6c-0.2,0.2-0.4,0.3-0.6,0.3h-2.5
			c-0.2,0-0.4-0.1-0.6-0.2c-0.2-0.2-0.3-0.4-0.3-0.6V92c0-0.2,0.1-0.4,0.3-0.6c0.2-0.2,0.4-0.3,0.6-0.3h2.5c0.2,0,0.4,0.1,0.6,0.3
			c0.2,0.2,0.3,0.4,0.3,0.6v8h9.5v-8c0-0.2,0.1-0.4,0.3-0.6c0.2-0.2,0.4-0.3,0.6-0.3H300z"/>
	</g>
	<g>
		<path d="M214.6,113c-0.2,0-0.4-0.1-0.6-0.3c-0.2-0.2-0.3-0.4-0.3-0.6V92c0-0.2,0.1-0.4,0.3-0.6c0.2-0.2,0.4-0.3,0.6-0.3h2.5
			c0.2,0,0.4,0.1,0.6,0.3c0.2,0.2,0.3,0.4,0.3,0.6v20.2c0,0.2-0.1,0.4-0.3,0.6c-0.2,0.2-0.4,0.3-0.6,0.3H214.6z"/>
	</g>
	
		<line fill="none" stroke="#000000" stroke-width="3.313" stroke-linejoin="round" stroke-miterlimit="10" x1="149.3" y1="120.9" x2="162" y2="131.9"/>
	
		<line fill="none" stroke="#000000" stroke-width="3.313" stroke-linejoin="round" stroke-miterlimit="10" x1="206" y1="120.9" x2="218.7" y2="131.9"/>
	
		<line fill="none" stroke="#000000" stroke-width="3.313" stroke-linejoin="round" stroke-miterlimit="10" x1="261.8" y1="120.9" x2="274.5" y2="131.9"/>
</g>
</svg>
