<?xml version="1.0" encoding="utf-8"?>
<!-- Generator: Adobe Illustrator 17.1.0, SVG Export Plug-In . SVG Version: 6.00 Build 0)  -->
<!DOCTYPE svg PUBLIC "-//W3C//DTD SVG 1.1//EN" "http://www.w3.org/Graphics/SVG/1.1/DTD/svg11.dtd">
<svg version="1.1" id="Слой_1" xmlns="http://www.w3.org/2000/svg" xmlns:xlink="http://www.w3.org/1999/xlink" x="0px" y="0px"
	 viewBox="0 0 200 200" enable-background="new 0 0 200 200" xml:space="preserve">
<g>
	<path fill="none" stroke="#000000" stroke-width="4" stroke-linejoin="round" stroke-miterlimit="10" d="M63.2,179.7l-32.9-28.5
		c-1.9-1.6-2.9-4-2.9-6.5V132c0-1.5,0.7-2.9,1.8-3.8"/>
	<path fill="#798FC9" stroke="#000000" stroke-width="4" stroke-linecap="round" stroke-miterlimit="10" d="M155.7,184.3H72
		c-6,0-10.8-4.8-10.8-10.8v-0.2c0-6,4.8-10.8,10.8-10.8h77.5l0,0.1c-2.4,7-2.4,14.6,0,21.6l0,0.1"/>
	<line fill="none" stroke="#000000" stroke-width="4" stroke-miterlimit="10" x1="68.7" y1="141.3" x2="28.9" y2="106.7"/>
	<polyline fill="none" stroke="#000000" stroke-width="4" stroke-linejoin="round" stroke-miterlimit="10" points="85.2,105.4 
		114.7,105.4 155.7,140.8 148.4,140.8 	"/>
	<path fill="none" stroke="#000000" stroke-width="4" stroke-linejoin="round" stroke-miterlimit="10" d="M63.2,158l-32.9-28.5
		c-1.9-1.6-2.9-4-2.9-6.5v-12.7c0-2.7,2.2-4.9,4.9-4.9h46.3"/>
	<path fill="#798FC9" stroke="#000000" stroke-width="4" stroke-linecap="round" stroke-miterlimit="10" d="M155.7,162.6H72
		c-6,0-10.8-4.8-10.8-10.8v-0.2c0-6,4.8-10.8,10.8-10.8h77.5l0,0.1c-2.4,7-2.4,14.6,0,21.6l0,0.1"/>
	<path fill="none" stroke="#000000" stroke-width="4" stroke-linejoin="round" stroke-miterlimit="10" d="M78.6,118.8V14.7
		c0-1.8,1.5-3.3,3.3-3.3H82c1.8,0,3.3,1.5,3.3,3.3v104.2"/>
	<g>
		<defs>
			<rect id="SVGID_1_" x="85.2" y="20.8" width="81.6" height="49.1"/>
		</defs>
		<use xlink:href="#SVGID_1_"  overflow="visible" fill="#798FC9"/>
		<clipPath id="SVGID_2_">
			<use xlink:href="#SVGID_1_"  overflow="visible"/>
		</clipPath>
		
			<polygon clip-path="url(#SVGID_2_)" fill="#FFFFFF" stroke="#000000" stroke-width="4" stroke-linejoin="round" stroke-miterlimit="10" points="
			79.8,26.9 84.4,17.9 173.6,63.9 169,72.9 		"/>
		
			<polygon clip-path="url(#SVGID_2_)" fill="#FFFFFF" stroke="#000000" stroke-width="4" stroke-linejoin="round" stroke-miterlimit="10" points="
			173.6,26.9 169,17.9 79.8,63.9 84.4,72.9 		"/>
		
			<polygon clip-path="url(#SVGID_2_)" fill="#FF4545" stroke="#000000" stroke-width="4" stroke-linecap="round" stroke-linejoin="round" stroke-miterlimit="10" points="
			166.8,40.3 131.1,40.3 131.1,20.8 121,20.8 121,40.3 85.2,40.3 85.2,50.4 121,50.4 121,69.9 131.1,69.9 131.1,50.4 166.8,50.4 		
			"/>
		
			<use xlink:href="#SVGID_1_"  overflow="visible" fill="none" stroke="#000000" stroke-width="4" stroke-linejoin="round" stroke-miterlimit="10"/>
	</g>
	<path fill="none" stroke="#000000" stroke-width="4" stroke-linejoin="round" stroke-miterlimit="10" d="M72.3,127.7
		c0-5.2,4.2-9.5,9.5-9.5H82c5.2,0,9.5,4.2,9.5,9.5H72.3z"/>
</g>
</svg>
